<?xml version="1.0" standalone="no"?>
<!DOCTYPE svg PUBLIC "-//W3C//DTD SVG 20010904//EN"
 "http://www.w3.org/TR/2001/REC-SVG-20010904/DTD/svg10.dtd">
<svg version="1.0" xmlns="http://www.w3.org/2000/svg"
 width="700.000000pt" height="700.000000pt" viewBox="0 0 700.000000 700.000000"
 preserveAspectRatio="xMidYMid meet">
<metadata>
Created by potrace 1.11, written by Peter Selinger 2001-2013
</metadata>
<g transform="translate(0.000000,700.000000) scale(0.100000,-0.100000)"
fill="#000000" stroke="none">
<path d="M3210 6989 c-284 -25 -402 -45 -615 -104 -284 -79 -534 -202 -740
-364 -81 -64 -227 -207 -270 -266 -17 -22 -35 -46 -42 -53 -53 -56 -191 -302
-244 -434 -55 -136 -119 -356 -135 -463 -5 -27 -9 -52 -9 -55 -1 -3 -5 -32 -9
-65 -5 -33 -10 -68 -12 -78 -16 -88 -19 -370 -19 -1607 0 -1249 4 -1547 20
-1610 2 -8 7 -37 10 -65 6 -56 6 -59 34 -194 145 -696 558 -1197 1192 -1444
98 -39 296 -98 374 -112 45 -7 75 -14 93 -19 9 -3 40 -7 67 -11 28 -3 59 -8
70 -10 11 -3 45 -7 75 -9 30 -3 87 -9 125 -13 89 -10 533 -10 645 -1 806 70
1363 361 1708 893 64 97 182 329 182 356 0 8 6 26 14 40 7 15 24 60 36 100 12
41 27 90 33 109 6 19 12 42 13 50 3 15 16 80 19 90 10 40 19 90 30 170 3 25 8
56 10 70 2 14 8 61 12 105 10 97 11 1669 1 1706 -24 97 -94 158 -203 176 -53
9 -2026 9 -2060 0 -96 -25 -163 -86 -187 -172 -14 -48 -18 -864 -5 -938 11
-66 46 -125 94 -159 70 -51 118 -58 441 -58 l293 0 -6 -62 c-3 -35 -8 -94 -11
-133 -3 -38 -7 -77 -9 -85 -2 -8 -7 -35 -10 -60 -16 -120 -64 -248 -127 -340
-77 -111 -227 -195 -388 -216 -25 -3 -56 -7 -70 -10 -39 -6 -208 -6 -275 1
-276 30 -449 161 -529 398 -31 91 -55 218 -62 322 -3 44 -7 103 -9 130 -6 72
-6 1960 0 2020 2 28 7 86 10 130 3 44 7 91 10 105 3 14 9 48 14 77 16 82 60
203 96 263 112 185 307 271 614 271 300 0 504 -89 613 -266 60 -98 112 -276
123 -420 9 -122 15 -157 31 -192 16 -34 69 -83 101 -92 10 -2 320 -6 688 -7
624 -2 673 -1 710 15 85 38 112 105 109 267 -3 140 -13 342 -19 374 -2 14 -6
50 -9 80 -9 96 -15 135 -41 270 -147 763 -613 1268 -1368 1486 -65 18 -128 36
-140 38 -12 3 -53 11 -92 19 -38 8 -90 18 -115 21 -25 3 -55 8 -67 10 -12 3
-53 8 -90 12 -37 3 -79 8 -93 11 -45 7 -553 9 -630 2z"/>
</g>
</svg>
