<svg xmlns="http://www.w3.org/2000/svg" width="1920" height="1000" version="1.0" viewBox="0 0 192000 100000" shape-rendering="geometricPrecision" text-rendering="geometricPrecision" image-rendering="optimizeQuality" fill-rule="evenodd" clip-rule="evenodd"><defs><style>.str1{stroke-opacity:.25098}.str0,.str1{stroke:#fff;stroke-width:141.732}.fil2,.fil6{fill:none}.fil1{fill:#00b7ff}.fil3{fill:#abccd9}.fil0{fill:#b5d8e6}.fil4{fill:#fff}</style><clipPath id="id0"><path d="M0 0h192000v100000H0V0z"/></clipPath><clipPath id="id1"><path d="M38828 53786l-4782-2761c-318-183-682-183-1000 0-12896 7446-16783 9690-29680 17136-318 184-500 499-500 866s182 683 500 866l4782 2761c318 184 682 184 1000 0 12897-7446 16783-9690 29680-17136 318-183 500-499 500-866s-182-682-500-866z"/></clipPath><clipPath id="id2"><path d="M0 0h192000v100000H0V0z"/></clipPath><clipPath id="id3"><path d="M173440 38663h2530v-4235h-2530v4235z"/></clipPath><clipPath id="id4"><path d="M0 0h192000v100000H0V0z"/></clipPath><clipPath id="id5"><path d="M173440 38663h2530v4697c0 403-567 730-1265 730-699 0-1265-327-1265-730v-4697z"/></clipPath><clipPath id="id6"><path d="M0 0h192000v100000H0V0z"/></clipPath><clipPath id="id7"><path d="M179391 35228h2529v-4236h-2529v4236z"/></clipPath><clipPath id="id8"><path d="M0 0h192000v100000H0V0z"/></clipPath><clipPath id="id9"><path d="M179391 35228h2529v4696c0 403-566 730-1265 730-698 0-1264-327-1264-730v-4696z"/></clipPath><clipPath id="id10"><path d="M0 0h192000v100000H0V0z"/></clipPath><clipPath id="id11"><path d="M185341 31792h2530v-4235h-2530v4235z"/></clipPath><clipPath id="id12"><path d="M0 0h192000v100000H0V0z"/></clipPath><clipPath id="id13"><path d="M185341 31792h2530v4696c0 404-566 731-1265 731s-1265-327-1265-731v-4696z"/></clipPath><clipPath id="id14"><path d="M0 0h192000v100000H0V0z"/></clipPath><clipPath id="id15"><path d="M45268 12321l-4000-2309c-318-184-682-184-1000 0l-4000 2309c-318 184-500 499-500 866v2046c0 367 182 682 500 866l4000 2309c318 184 682 184 1000 0l4000-2309c318-184 500-499 500-866v-2046c0-367-182-682-500-866z"/></clipPath><clipPath id="id16"><path d="M0 0h192000v100000H0V0z"/></clipPath><clipPath id="id17"><path d="M145577 11913l-7501-4330c-596-344-1278-344-1875 0l-7500 4330c-597 345-938 936-938 1624v3836c0 689 341 1280 938 1624l7500 4331c597 344 1279 344 1875 0l7501-4331c596-344 938-935 938-1624v-3836c0-688-342-1279-938-1624z"/></clipPath><clipPath id="id18"><path d="M0 0h192000v100000H0V0z"/></clipPath></defs><g id="Layer_x0020_1"><g clip-path="url(#id0)"><path class="fil0" d="M89831-20438l14526-8387c1590-918 2500-2494 2500-4330s-911-3412-2500-4330l-14526-8387c-1590-918-3410-918-5000 0l-14526 8387c-1590 918-2500 2494-2500 4330s910 3412 2500 4330l14526 8387c1590 917 3410 917 5000 0zM38828 53786l-4782-2761c-318-183-682-183-1000 0-12896 7446-16783 9690-29680 17136-318 184-500 499-500 866s182 683 500 866l4782 2761c318 184 682 184 1000 0 12897-7446 16783-9690 29680-17136 318-183 500-499 500-866s-182-682-500-866z"/><g clip-path="url(#id1)"><g id="_2637640295824"><path id="1" class="fil1" d="M33546 58568l5282-3050c318-183 500-499 500-866s-182-682-500-866l-4782-2761c-318-183-682-183-1000 0l-6281 3627 6781 3916z"/><path class="fil2 str0" d="M3409 72052l29637-17111"/></g></g><g clip-path="url(#id2)"><path class="fil2" d="M38828 53786l-4782-2761c-318-183-682-183-1000 0-12896 7446-16783 9690-29680 17136-318 184-500 499-500 866s182 683 500 866l4782 2761c318 184 682 184 1000 0 12897-7446 16783-9690 29680-17136 318-183 500-499 500-866s-182-682-500-866z"/><path class="fil3" d="M173440 38663h2530v-4235h-2530v4235z" id="_2637640292080"/><g clip-path="url(#id3)"><path id="1" class="fil2 str0" d="M174121 34540v9942"/></g><g clip-path="url(#id4)"><path class="fil2" d="M173440 38663h2530v-4235h-2530v4235z"/><path class="fil4" d="M174705 29649c698 0 1265 566 1265 1264 0 699-567 1265-1265 1265-699 0-1265-566-1265-1265 0-698 566-1264 1265-1264z"/><path class="fil3" d="M174705 35158c-699 0-1265-327-1265-730s566-730 1265-730c698 0 1265 327 1265 730s-567 730-1265 730z"/><path class="fil4" d="M174705 39393c-699 0-1265-327-1265-730s566-730 1265-730c698 0 1265 327 1265 730s-567 730-1265 730z"/><path class="fil4" d="M173440 38663h2530v4697c0 403-567 730-1265 730-699 0-1265-327-1265-730v-4697z"/></g><g clip-path="url(#id5)"><path id="1" class="fil2 str0" d="M174121 34540v9942"/></g><g clip-path="url(#id6)"><path class="fil2" d="M173440 38663h2530v4697c0 403-567 730-1265 730-699 0-1265-327-1265-730v-4697z"/></g><path class="fil3" d="M179391 35228h2529v-4236h-2529v4236z" id="_2637640288592"/><g clip-path="url(#id7)"><path id="1" class="fil2 str0" d="M180072 31105v9941"/></g><g clip-path="url(#id8)"><path class="fil2" d="M179391 35228h2529v-4236h-2529v4236z"/><path class="fil4" d="M180655 26213c699 0 1265 566 1265 1265 0 698-566 1265-1265 1265-698 0-1264-567-1264-1265 0-699 566-1265 1264-1265z"/><path class="fil3" d="M180655 31723c-698 0-1264-327-1264-731 0-403 566-730 1264-730 699 0 1265 327 1265 730 0 404-566 731-1265 731z"/><path class="fil4" d="M180655 35958c-698 0-1264-327-1264-730 0-404 566-731 1264-731 699 0 1265 327 1265 731 0 403-566 730-1265 730z"/><path class="fil4" d="M179391 35228h2529v4696c0 403-566 730-1265 730-698 0-1264-327-1264-730v-4696z"/></g><g clip-path="url(#id9)"><path id="1" class="fil2 str0" d="M180072 31105v9941"/></g><g clip-path="url(#id10)"><path class="fil2" d="M179391 35228h2529v4696c0 403-566 730-1265 730-698 0-1264-327-1264-730v-4696z"/></g><path class="fil3" d="M185341 31792h2530v-4235h-2530v4235z" id="_2637640283088"/><g clip-path="url(#id11)"><path id="1" class="fil2 str0" d="M186023 27669v9942"/></g><g clip-path="url(#id12)"><path class="fil2" d="M185341 31792h2530v-4235h-2530v4235z"/><path class="fil4" d="M186606 22777c699 0 1265 567 1265 1265 0 699-566 1265-1265 1265s-1265-566-1265-1265c0-698 566-1265 1265-1265z"/><path class="fil3" d="M186606 28287c-699 0-1265-327-1265-730 0-404 566-731 1265-731s1265 327 1265 731c0 403-566 730-1265 730z"/><path class="fil4" d="M186606 32522c-699 0-1265-327-1265-730s566-730 1265-730 1265 327 1265 730-566 730-1265 730z"/><path class="fil4" d="M185341 31792h2530v4696c0 404-566 731-1265 731s-1265-327-1265-731v-4696z"/></g><g clip-path="url(#id13)"><path id="1" class="fil2 str0" d="M186023 27669v9942"/></g><g clip-path="url(#id14)"><path class="fil2" d="M185341 31792h2530v4696c0 404-566 731-1265 731s-1265-327-1265-731v-4696z"/></g><path class="fil4" d="M33046 55594c-828 0-1500-388-1500-866 0-479 672-866 1500-866 829 0 1500 387 1500 866 0 478-671 866-1500 866zM22014 20996l-10320 5959c-795 459-1705 459-2500 0s-1250-1247-1250-2165v-7495c0-918 455-1706 1250-2165l10320-5958c795-459 1705-459 2500 0s1250 1247 1250 2165v7494c0 918-455 1706-1250 2165z"/><path id="1" class="fil0" d="M22014 20996l-10320 5959c-795 459-1705 459-2500 0s-1250-1247-1250-2165v-7495c0-918 455-1706 1250-2165l10320-5958c795-459 1705-459 2500 0s1250 1247 1250 2165v7494c0 918-455 1706-1250 2165zm-10745 5226v-1l10320-5959h3c264-152 471-358 611-601h2c136-237 209-519 209-830h3v-7494h-3c0-311-73-593-209-830h-2c-140-243-347-449-611-601-267-154-549-231-828-231v3c-280 0-561 76-825 228L9619 15864h-3c-264 153-471 359-611 602l-2-1c-136 237-209 519-209 830h-3v7495h3c0 309 73 591 211 829v3c137 239 345 443 614 599 263 152 544 228 825 228s563-76 825-227z"/><path class="fil0" d="M22014 20996l-10320 5959c-795 459-1250 1247-1250 2165s455 1706 1250 2165l6490 3747c795 459 1705 459 2500 0l10320-5959c795-459 1250-1247 1250-2165s-455-1706-1250-2165l-6490-3747c-795-459-1705-459-2500 0z"/><path class="fil1 str0" d="M16215 19659c-976 1691-2559 2605-3535 2041-977-564-977-2391 0-4082 976-1691 2559-2605 3535-2042 977 564 977 2392 0 4083z"/><path class="str0" d="M19608 17700c-488 846-1280 1303-1768 1021s-488-1196 0-2041c488-846 1280-1303 1768-1021s488 1196 0 2041z" fill="#ededed"/><path class="fil1" d="M45268 12321l-4000-2309c-318-184-682-184-1000 0l-4000 2309c-318 184-500 499-500 866v2046c0 367 182 682 500 866l4000 2309c318 184 682 184 1000 0l4000-2309c318-184 500-499 500-866v-2046c0-367-182-682-500-866z"/></g><g clip-path="url(#id15)"><path id="1" class="fil6 str1" d="M45268 9409l-4000-2309c-318-184-682-184-1000 0l-4000 2309c-318 184-500 499-500 866v2046c0 367 182 682 500 866l4000 2309c318 184 682 184 1000 0l4000-2309c318-184 500-499 500-866v-2046c0-367-182-682-500-866z"/></g><g clip-path="url(#id16)"><path class="fil2" d="M45268 12321l-4000-2309c-318-184-682-184-1000 0l-4000 2309c-318 184-500 499-500 866v2046c0 367 182 682 500 866l4000 2309c318 184 682 184 1000 0l4000-2309c318-184 500-499 500-866v-2046c0-367-182-682-500-866z"/><path class="fil0" d="M145577 11913l-7501-4330c-596-344-1278-344-1875 0l-7500 4330c-597 345-938 936-938 1624v3836c0 689 341 1280 938 1624l7500 4331c597 344 1279 344 1875 0l7501-4331c596-344 938-935 938-1624v-3836c0-688-342-1279-938-1624z"/></g><g clip-path="url(#id17)"><path id="1" class="fil6 str1" d="M145577 6454l-7501-4331c-596-344-1278-344-1875 0l-7500 4331c-597 344-938 935-938 1623v3836c0 689 341 1280 938 1624l7500 4331c597 344 1279 344 1875 0l7501-4331c596-344 938-935 938-1624V8077c0-688-342-1279-938-1623z"/><path class="fil6 str1" d="M137139 15107c-2279 0-4126-1066-4126-2382 0-1315 1847-2382 4126-2382 2278 0 4126 1067 4126 2382 0 1316-1848 2382-4126 2382z"/><ellipse class="fil4" cx="137139" cy="12725" rx="2014" ry="1163"/></g><g clip-path="url(#id18)"><path class="fil2" d="M145577 11913l-7501-4330c-596-344-1278-344-1875 0l-7500 4330c-597 345-938 936-938 1624v3836c0 689 341 1280 938 1624l7500 4331c597 344 1279 344 1875 0l7501-4331c596-344 938-935 938-1624v-3836c0-688-342-1279-938-1624z"/><path class="fil1" d="M64384 24034c-829 0-1500-388-1500-866s671-866 1500-866c828 0 1500 388 1500 866s-672 866-1500 866zm-1433-6550c788 788 2077 788 2865 0s788-2077 0-2865l-1432-1433-1433 1433c-788 788-788 2077 0 2865z"/></g></g><path class="fil2" d="M0 0h192000v100000H0V0z"/></g></svg>