<svg xmlns="http://www.w3.org/2000/svg" width="1200" height="854" version="1.0" viewBox="0 0 120000 85400" shape-rendering="geometricPrecision" text-rendering="geometricPrecision" image-rendering="optimizeQuality" fill-rule="evenodd" clip-rule="evenodd"><defs><style>.str1,.str2{stroke:#000;stroke-width:141.732;stroke-opacity:.101961}.str2{stroke:#fff;stroke-opacity:.25098}.str4{stroke-opacity:.501961}.str3,.str4{stroke-width:141.732}.str4{stroke:#00b7ff}.str3{stroke:#fff}.fil2,.fil5,.fil7,.fil9{fill:none}.fil1{fill:#00b7ff}.fil6{fill:#abccd9}.fil4{fill:#b5d8e6}.fil0{fill:#fff}.fil3{fill:#000;fill-opacity:.070588}</style><clipPath id="id0"><path d="M0-1h120000v85401H0V-1z"/></clipPath><clipPath id="id1"><path d="M112561 37699h1877v-3143h-1877v3143z"/></clipPath><clipPath id="id2"><path d="M0-1h120000v85401H0V-1z"/></clipPath><clipPath id="id3"><path d="M112561 37699h1877v3484c0 300-420 542-938 542s-939-242-939-542v-3484z"/></clipPath><clipPath id="id4"><path d="M0-1h120000v85401H0V-1z"/></clipPath><clipPath id="id5"><path d="M116977 35150h1876v-3143h-1876v3143z"/></clipPath><clipPath id="id6"><path d="M0-1h120000v85401H0V-1z"/></clipPath><clipPath id="id7"><path d="M116977 35150h1876v3484c0 300-420 542-938 542s-938-242-938-542v-3484z"/></clipPath><clipPath id="id8"><path d="M0-1h120000v85401H0V-1z"/></clipPath><clipPath id="id9"/><clipPath id="id10"><path d="M0-1h120000v85401H0V-1z"/></clipPath><clipPath id="id11"/><clipPath id="id12"><path d="M0-1h120000v85401H0V-1z"/></clipPath><clipPath id="id13"><path d="M109577 11913l-7501-4331c-596-344-1278-344-1875 0l-7500 4331c-597 344-938 935-938 1624v3836c0 688 341 1279 938 1624l7500 4330c597 344 1279 344 1875 0l7501-4330c596-345 938-936 938-1624v-3836c0-689-342-1280-938-1624z"/></clipPath><clipPath id="id14"><path d="M0-1h120000v85401H0V-1z"/></clipPath></defs><g id="Layer_x0020_1"><path class="fil0" d="M0-1h120000v85401H0V-1z"/><g clip-path="url(#id0)"><g id="_2099439234384"><path id="1" class="fil1" d="M123195 82140l9437-5449c795-459 1250-1247 1250-2165s-455-1706-1250-2165l-9437-5448c-795-459-1705-459-2500 0l-9437 5448c-795 459-1250 1247-1250 2165s455 1706 1250 2165l9437 5449c795 459 1705 459 2500 0z"/><path class="fil2" d="M105827 21162l6564 3790c1590 918 3410 918 5000 0l22195-12814c1590-918 3410-918 5000 0l6564 3790" stroke="#b5d8e6" stroke-width="141.732" stroke-linecap="round"/><path class="fil3" d="M128913 11561L148439 288c794-459 1250-1247 1250-2165s-456-1706-1250-2165l-19526-11273c-795-459-1705-459-2500 0L106887-4042c-795 459-1250 1247-1250 2165s455 1706 1250 2165l19526 11273c795 459 1705 459 2500 0z"/><path class="fil4" d="M53831-20439l14526-8386c1590-918 2500-2495 2500-4331s-911-3412-2500-4330l-14526-8386c-1590-918-3410-918-5000 0l-14526 8386c-1590 918-2500 2494-2500 4330s910 3413 2500 4331l14526 8386c1590 918 3410 918 5000 0z"/><path class="fil5 str1" d="M-45068 29092l69827-40315c795-458 1250-1247 1250-2165s-455-1706-1250-2165l-3684-2126c-795-459-1250-1248-1250-2165 0-918 455-1707 1250-2166l18114-10458"/><path class="fil5 str1" d="M8290-35677L78117 4638c795 459 1250 1247 1250 2165s-455 1706-1250 2165l-3683 2127c-795 459-1250 1247-1250 2165s455 1706 1250 2165l18113 10458"/><path class="fil3" d="M94722 29618c1380 0 2500-1119 2500-2500s-1120-2500-2500-2500c-1381 0-2500 1119-2500 2500s1119 2500 2500 2500z"/><path class="fil1" d="M156437 60835l35846-20695c1590-918 2500-2495 2500-4331 0-1835-910-3412-2500-4330L152283 8385c-1590-918-3411-918-5000 0l-40001 23094c-1589 918-2499 2495-2499 4330 0 1836 910 3413 2499 4331l17786 10268c1590 918 2500 2494 2500 4330s-910 3412-2500 4330l-3346 1931c-1589 918-2500 2495-2500 4330 0 1836 911 3413 2500 4331l15001 8660c1589 918 3410 918 4999 0l15001-8660c1589-918 2500-2495 2500-4331-1-1835-911-3412-2500-4330l-286-164z"/><path class="fil3" d="M117454 59075l14525-8387c1590-918 2500-2494 2500-4330s-910-3412-2500-4330l-14525-8386c-1590-918-3410-918-5000 0l-14526 8386c-1590 918-2500 2494-2500 4330s910 3412 2500 4330l14526 8387c1590 918 3410 918 5000 0zm11644 19688l6397-3693c795-459 1250-1247 1250-2165s-455-1706-1250-2165l-6397-3693c-794-459-1705-459-2500 0l-6396 3693c-795 459-1250 1247-1250 2165s455 1706 1250 2165l6396 3693c795 459 1706 459 2500 0z"/><path class="fil6" d="M121155 75060l9437-5449c795-459 1250-1247 1250-2165s-455-1706-1250-2165l-9437-5448c-795-459-1705-459-2500 0l-9437 5448c-795 459-1250 1247-1250 2165s455 1706 1250 2165l9437 5449c795 459 1705 459 2500 0z"/><path class="fil0" d="M119905 69307c-1780 0-3223-833-3223-1861s1443-1861 3223-1861c1781 0 3224 833 3224 1861s-1443 1861-3224 1861z"/><path class="fil7 str2" d="M119905 71258c-3646 0-6602-1707-6602-3812s2956-3812 6602-3812c3647 0 6603 1707 6603 3812s-2956 3812-6603 3812z"/><path class="fil6" d="M112561 37699h1877v-3143h-1877v3143z"/><g clip-path="url(#id1)"><path id="1" class="fil2 str3" d="M113067 34640v7376"/></g><g clip-path="url(#id2)"><path class="fil2" d="M112561 37699h1877v-3143h-1877v3143z"/><path class="fil0" d="M113500 31010c518 0 938 420 938 939 0 518-420 938-938 938s-939-420-939-938c0-519 421-939 939-939z"/><path class="fil6" d="M113500 35098c-518 0-939-242-939-542 0-299 421-542 939-542s938 243 938 542c0 300-420 542-938 542z"/><path class="fil0" d="M113500 38241c-518 0-939-243-939-542 0-300 421-542 939-542s938 242 938 542c0 299-420 542-938 542z"/><path class="fil0" d="M112561 37699h1877v3484c0 300-420 542-938 542s-939-242-939-542v-3484z"/></g><g clip-path="url(#id3)"><path id="1" class="fil2 str3" d="M113067 34640v7376"/></g><g clip-path="url(#id4)"><path class="fil2" d="M112561 37699h1877v3484c0 300-420 542-938 542s-939-242-939-542v-3484z"/></g><path class="fil6" d="M116977 35150h1876v-3143h-1876v3143z"/><g clip-path="url(#id5)"><path id="1" class="fil2 str3" d="M117482 32091v7376"/></g><g clip-path="url(#id6)"><path class="fil2" d="M116977 35150h1876v-3143h-1876v3143z"/><path class="fil0" d="M117915 28461c518 0 938 420 938 939 0 518-420 938-938 938s-938-420-938-938c0-519 420-939 938-939z"/><path class="fil6" d="M117915 32549c-518 0-938-243-938-542s420-542 938-542 938 243 938 542-420 542-938 542z"/><path class="fil0" d="M117915 35691c-518 0-938-242-938-541 0-300 420-542 938-542s938 242 938 542c0 299-420 541-938 541z"/><path class="fil0" d="M116977 35150h1876v3484c0 300-420 542-938 542s-938-242-938-542v-3484z"/></g><g clip-path="url(#id7)"><path id="1" class="fil2 str3" d="M117482 32091v7376"/></g><g clip-path="url(#id8)"><path class="fil2" d="M116977 35150h1876v3484c0 300-420 542-938 542s-938-242-938-542v-3484z"/></g><path class="fil6" d="M121392 32601h1877v-3143h-1877v3143z"/><g clip-path="url(#id9)"><path id="1" class="fil2 str3" d="M121897 29541v7377"/></g><g clip-path="url(#id10)"><path class="fil2" d="M121392 32601h1877v-3143h-1877v3143z"/><path class="fil0" d="M122330 25912c518 0 939 420 939 939 0 518-421 938-939 938s-938-420-938-938c0-519 420-939 938-939z"/><path class="fil6" d="M122330 30000c-518 0-938-243-938-542s420-542 938-542 939 243 939 542-421 542-939 542z"/><path class="fil0" d="M122330 33142c-518 0-938-242-938-541 0-300 420-542 938-542s939 242 939 542c0 299-421 541-939 541z"/><path class="fil0" d="M121392 32601h1877v3484c0 299-421 542-939 542s-938-243-938-542v-3484z"/></g><g clip-path="url(#id11)"><path id="1" class="fil2 str3" d="M121897 29541v7377"/></g><g clip-path="url(#id12)"><path class="fil2" d="M121392 32601h1877v3484c0 299-421 542-939 542s-938-243-938-542v-3484z"/></g><path class="fil1" d="M-2015 52912l13207-7625c1181-682 1857-1852 1857-3216 0-1363-676-2533-1857-3215l-29703-17149c-1181-682-2532-682-3713 0l-29703 17149c-1181 682-1857 1852-1857 3215 0 1364 676 2534 1857 3216l26618 15368-212 122c-1181 682-1857 1852-1857 3216 0 1363 676 2533 1857 3215l11139 6431c1180 682 2532 682 3712 0L469 67208c1181-682 1857-1852 1857-3215 0-1364-676-2534-1857-3216l-2484-1434c-1180-682-1856-1852-1856-3216 0-1363 676-2533 1856-3215z"/><path class="fil3" d="M1864 80720c1053 0 1907-853 1907-1907 0-1053-854-1907-1907-1907S-43 77760-43 78813c0 1054 854 1907 1907 1907zm8785-57586c1026 0 1857-832 1857-1857s-831-1856-1857-1856c-1025 0-1856 831-1856 1856s831 1857 1856 1857z"/><path class="fil6" d="M-13920 55558L580 47187c590-341 928-927 928-1608 0-682-338-1267-928-1608l-14500-8371c-590-341-1266-341-1856 0l-14500 8371c-590 341-928 926-928 1608 0 681 338 1267 928 1608l14500 8371c590 341 1266 341 1856 0z"/><path class="fil3" d="M-6525 47932l10787-6228c1180-682 1856-1852 1856-3215 0-1364-676-2534-1856-3216l-10787-6228c-1181-681-2532-681-3713 0l-10786 6228c-1181 682-1857 1852-1857 3216 0 1363 676 2533 1857 3215l10786 6228c1181 681 2532 681 3713 0z"/><path class="fil0" d="M5285 31071l-7664 4425c-590 341-1266 341-1856 0-591-341-929-926-929-1608v-5565c0-682 338-1267 929-1608l7663-4425c591-340 1266-340 1857 0 590 341 928 926 928 1608v5565c0 682-338 1267-928 1608z"/><path id="1" class="fil4" d="M5285 31071l-7664 4425c-590 341-1266 341-1856 0-591-341-929-926-929-1608v-5565c0-682 338-1267 929-1608l7663-4425c591-340 1266-340 1857 0 590 341 928 926 928 1608v5565c0 682-338 1267-928 1608zm-8089 3691l7664-4425c166-96 293-221 376-364v-3c83-143 127-315 127-507h3v-5565h-3c0-191-44-364-127-506v-4c-82-143-210-267-376-363-161-93-333-140-503-140-171 0-343 47-503 140l-7664 4424h-4c-161 93-287 219-373 367-82 143-126 315-126 507v5565c0 192 44 364 126 506 86 149 212 275 373 368h4c161 93 332 139 503 139 170 0 342-46 503-139z"/><path class="fil4" d="M5285 31071l-7664 4425c-590 341-928 926-928 1607 0 682 338 1267 928 1608l4820 2783c590 341 1266 341 1856 0l7664-4425c590-341 928-926 928-1608 0-681-338-1267-928-1607l-4820-2783c-590-341-1266-341-1856 0z"/><path class="fil1 str3" d="M979 30078c-725 1256-1901 1934-2626 1516-725-419-725-1776 0-3032s1901-1934 2626-1516c725 419 725 1776 0 3032z"/><path class="str3" d="M3498 28624c-363 627-950 967-1313 757-362-209-362-887 0-1515 363-628 950-968 1313-758 362 209 362 888 0 1516z" fill="#ededed"/><g id="_2099439241904"><path class="fil4" d="M22686 68324l-4782-2761c-318-184-682-184-1000 0C4008 73009-8889 80455-21786 87901c-318 184-500 499-500 866s182 682 500 866l4782 2761c318 183 682 183 1000 0 12896-7446 25793-14892 38690-22338 318-184 500-499 500-866s-182-683-500-866z"/><path class="fil1" d="M17404 73105l5282-3049c318-184 500-499 500-866s-182-683-500-866l-4782-2761c-318-184-682-184-1000 0l-6281 3627 6781 3915z"/><path class="fil0" d="M16904 70131c-828 0-1500-388-1500-866s672-866 1500-866c829 0 1500 388 1500 866s-671 866-1500 866z"/><path class="fil2 str3" d="M-34464 99136l51368-29658"/></g><path class="fil4" d="M109577 11913l-7501-4331c-596-344-1278-344-1875 0l-7500 4331c-597 344-938 935-938 1624v3836c0 688 341 1279 938 1624l7500 4330c597 344 1279 344 1875 0l7501-4330c596-345 938-936 938-1624v-3836c0-689-342-1280-938-1624z"/></g><g clip-path="url(#id13)"><g id="_2099439239952"><path id="1" class="fil7 str2" d="M109577 6453l-7501-4330c-596-345-1278-345-1875 0l-7500 4330c-597 344-938 936-938 1624v3836c0 688 341 1280 938 1624l7500 4330c597 344 1279 344 1875 0l7501-4330c596-344 938-936 938-1624V8077c0-689-342-1280-938-1624z"/><path class="fil7 str2" d="M101139 15107c-2279 0-4126-1067-4126-2382 0-1316 1847-2382 4126-2382 2278 0 4126 1066 4126 2382 0 1315-1848 2382-4126 2382z"/><ellipse class="fil0" cx="101139" cy="12725" rx="2014" ry="1163"/></g></g><g clip-path="url(#id14)"><path class="fil2" d="M109577 11913l-7501-4331c-596-344-1278-344-1875 0l-7500 4331c-597 344-938 935-938 1624v3836c0 688 341 1279 938 1624l7500 4330c597 344 1279 344 1875 0l7501-4330c596-345 938-936 938-1624v-3836c0-689-342-1280-938-1624z"/><g id="_2099439241232"><path class="fil9 str4" d="M57654 23657c-2278 0-4125-1067-4125-2382 0-1316 1847-2382 4125-2382 2279 0 4126 1066 4126 2382 0 1315-1847 2382-4126 2382z"/><path class="fil1" d="M57654 22141c-828 0-1500-388-1500-866 0-479 672-866 1500-866 829 0 1500 387 1500 866 0 478-671 866-1500 866z"/></g><g id="_2099439239824"><path class="fil9 str4" d="M76614 28037c-2278 0-4125-1067-4125-2382 0-1316 1847-2382 4125-2382 2279 0 4126 1066 4126 2382 0 1315-1847 2382-4126 2382z"/><path class="fil1" d="M76614 26521c-828 0-1500-388-1500-866 0-479 672-866 1500-866 829 0 1500 387 1500 866 0 478-671 866-1500 866z"/></g><g id="_2099439237968"><path class="fil9 str4" d="M82652 13904c-2278 0-4125-1067-4125-2382 0-1316 1847-2382 4125-2382 2279 0 4126 1066 4126 2382 0 1315-1847 2382-4126 2382z"/><path class="fil1" d="M82652 12388c-828 0-1500-388-1500-866 0-479 672-866 1500-866 829 0 1500 387 1500 866 0 478-671 866-1500 866z"/></g><g id="_2099439234096"><path d="M40298 22060L81218-1565c672-387 1056-1053 1056-1828s-384-1441-1056-1828l-7063-4078c-671-388-1440-388-2111 0L31124 14326c-672 387-1056 1053-1056 1828s384 1441 1056 1829l7063 4077c671 388 1440 388 2111 0z" fill-opacity=".071"/><path class="fil0" d="M39243 18177c-1936 0-3504-906-3504-2023s1568-2023 3504-2023c1934 0 3503 906 3503 2023s-1569 2023-3503 2023z"/><path class="fil1" d="M39243 16886c-700 0-1267-328-1267-732s567-731 1267-731c699 0 1266 327 1266 731s-567 732-1266 732z"/><path class="fil0" d="M50528 11661c-1935 0-3504-905-3504-2023 0-1117 1569-2022 3504-2022s3504 905 3504 2022c0 1118-1569 2023-3504 2023zm11286-6516c-1935 0-3504-905-3504-2022s1569-2023 3504-2023 3503 906 3503 2023-1568 2022-3503 2022zm11285-6515c-1935 0-3503-906-3503-2023s1568-2023 3503-2023 3504 906 3504 2023-1569 2023-3504 2023z"/><path class="fil4" d="M37920-7506h2645V3423c0 421-592 763-1323 763-730 0-1322-342-1322-763V-7506z"/><path class="fil1" d="M38033 11354c665 666 1754 666 2419 0 666-665 666-1754 0-2419l-1209-1210-1210 1210c-666 665-666 1754 0 2419z"/></g><path class="fil2" d="M57654 21275l18960 4380 6038-14133m0 0l33862-19551" stroke="#00b7ff" stroke-width="141.732"/></g></g><path class="fil2" d="M0-1h120000v85401H0V-1z"/></g></svg>