<svg xmlns="http://www.w3.org/2000/svg" width="1920" height="1000" version="1.0" viewBox="0 0 192000 100000" shape-rendering="geometricPrecision" text-rendering="geometricPrecision" image-rendering="optimizeQuality" fill-rule="evenodd" clip-rule="evenodd"><defs><style>.fil3{fill:none}.fil1{fill:#ededed}.fil0{fill:#000;fill-opacity:.070588}</style><clipPath id="id0"><path d="M0 0h192000v100000H0V0z"/></clipPath></defs><g id="Layer_x0020_1"><g clip-path="url(#id0)"><path class="fil0" d="M167374 59075l14525-8386c1590-918 2500-2494 2500-4330s-910-3412-2500-4330l-14525-8387c-1590-918-3410-918-5000 0l-14526 8387c-1590 918-2500 2494-2500 4330s910 3412 2500 4330l14526 8386c1590 918 3410 918 5000 0zM15408 90785c1381 0 2500-1120 2500-2500 0-1381-1119-2500-2500-2500s-2500 1119-2500 2500c0 1380 1119 2500 2500 2500zm13830-80478c1381 0 2500-1119 2500-2500s-1119-2500-2500-2500c-1380 0-2500 1119-2500 2500s1120 2500 2500 2500z"/><path class="fil1" d="M42018 24404l6397-3693c795-459 1250-1247 1250-2165s-455-1706-1250-2165l-6397-3693c-795-459-1705-459-2500 0l-6396 3693c-795 459-1250 1247-1250 2165s455 1706 1250 2165l6396 3693c795 459 1705 459 2500 0z"/><path class="fil0" d="M179019 78764l6396-3693c795-459 1250-1247 1250-2165s-455-1706-1250-2165l-6396-3693c-795-459-1706-459-2500 0l-6397 3693c-795 459-1250 1247-1250 2165s455 1706 1250 2165l6397 3693c794 459 1705 459 2500 0z"/><path d="M140236 77327l6396-3693c795-459 1250-1247 1250-2165s-455-1706-1250-2165l-6396-3693c-795-459-1705-459-2500 0l-6397 3693c-795 459-1250 1247-1250 2165s455 1706 1250 2165l6397 3693c795 459 1705 459 2500 0z" fill="#b5d8e6"/><path class="fil0" d="M156864 19058c1756 0 3180-1424 3180-3180s-1424-3180-3180-3180c-1757 0-3180 1424-3180 3180s1423 3180 3180 3180zm-26142 10560c1380 0 2500-1119 2500-2500 0-1380-1120-2500-2500-2500-1381 0-2500 1120-2500 2500 0 1381 1119 2500 2500 2500z"/><path class="fil3" d="M130686 27118l-15847-9149c-1590-918-3410-918-5000 0l-1466 846c-1590 918-3410 918-5000 0l-10105-5834" stroke="#ededed" stroke-width="141.732"/><path d="M93654 23657c-2278 0-4125-1066-4125-2382 0-1315 1847-2382 4125-2382 2279 0 4126 1067 4126 2382 0 1316-1847 2382-4126 2382zm18960 4380c-2278 0-4125-1066-4125-2382 0-1315 1847-2382 4125-2382 2279 0 4126 1067 4126 2382 0 1316-1847 2382-4126 2382zm6038-14133c-2278 0-4125-1066-4125-2382 0-1315 1847-2382 4125-2382 2279 0 4126 1067 4126 2382 0 1316-1847 2382-4126 2382z" fill="none" stroke="#00b7ff" stroke-width="141.732" stroke-opacity=".502"/><path class="fil0" d="M29560 72109l10000-5773c1590-918 2500-2495 2500-4331 0-1835-910-3412-2500-4330l-10000-5773c-1590-918-3410-918-5000 0l-10000 5773c-1590 918-2500 2495-2500 4330 0 1836 910 3413 2500 4331l10000 5773c1590 918 3410 918 5000 0z"/><path class="fil1" d="M65634 30162c16151-9325 16010-9244 32162-18569 795-459 1250-1247 1250-2165s-455-1706-1250-2165l-8364-4829c-795-459-1705-459-2500 0-16151 9325-16010 9244-32162 18569-795 459-1250 1247-1250 2165s455 1706 1250 2165l8364 4829c795 459 1705 459 2500 0z"/><path d="M64384 25563c-2292 0-4149-1072-4149-2395s1857-2395 4149-2395c2291 0 4148 1072 4148 2395s-1857 2395-4148 2395zm10872-6277c-2291 0-4149-1072-4149-2395s1858-2396 4149-2396 4149 1073 4149 2396-1858 2395-4149 2395zm10873-6277c-2292 0-4149-1073-4149-2396 0-1322 1857-2395 4149-2395 2291 0 4148 1073 4148 2395 0 1323-1857 2396-4148 2396z" fill="#fff"/></g><path class="fil3" d="M0 0h192000v100000H0V0z"/></g></svg>