<svg xmlns="http://www.w3.org/2000/svg" width="1920" height="1000" version="1.0" viewBox="0 0 192000 100000" shape-rendering="geometricPrecision" text-rendering="geometricPrecision" image-rendering="optimizeQuality" fill-rule="evenodd" clip-rule="evenodd"><defs><style>.fil0{fill:none}.fil3{fill:#00b7ff}.fil5{fill:#abccd9}.fil2{fill:#b5d8e6}.fil1{fill:#000;fill-opacity:.070588}</style><clipPath id="id0"><path d="M0 0h192000v100000H0V0z"/></clipPath></defs><g id="Layer_x0020_1"><g clip-path="url(#id0)"><path class="fil0" d="M137057 18408l11334 6545c1590 917 3410 917 5000 0l22195-12814c1590-918 3410-918 5000 0l6564 3790" stroke="#b5d8e6" stroke-width="141.732" stroke-linecap="round"/><path class="fil1" d="M164913 11562L184438 288c795-459 1250-1247 1250-2165s-455-1706-1250-2165l-19525-11273c-795-459-1705-459-2500 0L142887-4042c-795 459-1250 1247-1250 2165s455 1706 1250 2165l19526 11274c795 459 1705 459 2500 0z"/><path class="fil2" d="M89831-20438l14526-8387c1590-918 2500-2494 2500-4330s-911-3412-2500-4330l-14526-8387c-1590-918-3410-918-5000 0l-14526 8387c-1590 918-2500 2494-2500 4330s910 3412 2500 4330l14526 8387c1590 917 3410 917 5000 0z"/><path class="fil3" d="M17217 50408l17785-10268c1590-918 2500-2494 2500-4330s-910-3412-2500-4330L-4998 8386c-1590-918-3410-918-5000 0l-40000 23094c-1590 918-2500 2494-2500 4330s910 3412 2500 4330l35846 20695-286 165c-1590 918-2500 2494-2500 4330s910 3412 2500 4330L562 78320c1590 918 3410 918 5000 0l15000-8660c1590-918 2500-2494 2500-4330s-910-3412-2500-4330l-3345-1931c-1590-918-2500-2495-2500-4331s910-3412 2500-4330zm189140 10427l35846-20695c1590-918 2500-2494 2500-4330s-910-3412-2500-4330L202203 8386c-1590-918-3410-918-5000 0l-40000 23094c-1590 918-2500 2494-2500 4330s910 3412 2500 4330l17785 10268c1590 918 2500 2494 2500 4330s-910 3413-2500 4331l-3345 1931c-1590 918-2500 2494-2500 4330s910 3412 2500 4330l15000 8660c1590 918 3410 918 5000 0l15000-8660c1590-918 2500-2494 2500-4330s-910-3412-2500-4330l-286-165z"/><path d="M-49187 83396l69827-40315c795-459 1250-1247 1250-2165s-455-1706-1250-2165l-3684-2127c-795-459-1250-1247-1250-2165s455-1706 1250-2165l21419-12366m177421-5719l-69828 40315c-795 459-1250 1247-1250 2165s455 1706 1250 2165l3684 2127c795 459 1250 1247 1250 2165s-455 1706-1250 2165l-10666 6158M-9068 29093l69827-40315c795-459 1250-1247 1250-2165s-455-1706-1250-2165l-3684-2127c-795-459-1250-1247-1250-2165s455-1706 1250-2165l18114-10458" fill="none" stroke-opacity=".102" stroke="#000" stroke-width="141.732"/><path class="fil5" d="M-3848 53971l19526-11273c795-459 1250-1247 1250-2165s-455-1706-1250-2165L-3848 27095c-795-459-1705-459-2500 0l-19525 11273c-795 459-1250 1247-1250 2165s455 1706 1250 2165l19525 11273c795 459 1705 459 2500 0z"/><path class="fil1" d="M6111 43702l14526-8387c1590-918 2500-2494 2500-4330s-911-3412-2500-4330L6111 18268c-1590-918-3410-918-5000 0l-14526 8387c-1590 918-2500 2494-2500 4330s910 3412 2500 4330l14526 8387c1590 918 3410 918 5000 0z"/><path class="fil5" d="M194355 68460l9438-5448c795-459 1250-1247 1250-2165s-455-1706-1250-2165l-9438-5449c-795-459-1705-459-2500 0l-9437 5449c-795 459-1250 1247-1250 2165s455 1706 1250 2165l9437 5448c795 459 1705 459 2500 0z"/><g id="_2638118730704"><path d="M193105 62708c-1780 0-3223-833-3223-1861s1443-1862 3223-1862c1781 0 3224 834 3224 1862s-1443 1861-3224 1861z" fill="#fff"/><path d="M193105 64658c-3646 0-6602-1706-6602-3811 0-2106 2956-3812 6602-3812 3647 0 6603 1706 6603 3812 0 2105-2956 3811-6603 3811z" fill="none" stroke="#fff" stroke-width="141.732" stroke-opacity=".251"/></g><path d="M3791 87382l14526-8387c1590-918 2500-2494 2500-4330s-911-3412-2500-4330L3791 61948c-1590-918-3410-918-5000 0l-14526 8387c-1590 918-2500 2494-2500 4330s910 3412 2500 4330l14526 8387c1590 918 3410 918 5000 0z" fill="none" stroke="#000" stroke-width="141.732" stroke-opacity=".071"/><path class="fil3" d="M93654 22141c-828 0-1500-388-1500-866s672-866 1500-866c829 0 1500 388 1500 866s-671 866-1500 866zm18960 4380c-828 0-1500-388-1500-866s672-866 1500-866c829 0 1500 388 1500 866s-671 866-1500 866zm6038-14133c-828 0-1500-387-1500-866 0-478 672-866 1500-866 829 0 1500 388 1500 866 0 479-671 866-1500 866z"/><path class="fil2" d="M62818-4850h3132V8092c0 499-701 904-1566 904s-1566-405-1566-904V-4850z"/><path class="fil0" d="M93654 21275l18960 4380 6038-14133m0 0l33862-19550" stroke="#00b7ff" stroke-width="141.732"/></g><path class="fil0" d="M0 0h192000v100000H0V0z"/></g></svg>