<svg xmlns="http://www.w3.org/2000/svg" width="22" height="26" version="1.0" viewBox="0 0 2200 2600" shape-rendering="geometricPrecision" text-rendering="geometricPrecision" image-rendering="optimizeQuality" fill-rule="evenodd" clip-rule="evenodd"><defs><style>.fil0{fill:#00b7ff;fill-rule:nonzero}</style></defs><g id="Layer_x0020_1"><g id="_1882667176992"><path class="fil0" d="M2031 669l-508-508c-54-55-126-90-215-106v828h829c-16-89-52-160-106-214z"/><path class="fil0" d="M1256 1092c-43 0-80-15-110-46-31-30-46-67-46-111V50H215c-44 0-81 15-111 46-30 30-46 67-46 110v2188c0 43 16 80 46 110 30 31 67 46 111 46h1770c44 0 81-15 111-46 31-30 46-67 46-110V1092h-886z"/></g></g></svg>