<svg xmlns="http://www.w3.org/2000/svg" width="470" height="160" version="1.0" viewBox="0 0 47000 16000" shape-rendering="geometricPrecision" text-rendering="geometricPrecision" image-rendering="optimizeQuality" fill-rule="evenodd" clip-rule="evenodd"><defs><clipPath id="a"><path d="M0 16000h47000V0H0v16000z"/></clipPath></defs><g clip-path="url(#a)"><path d="M29314 23228l7020-4053c1590-918 2500-2494 2500-4330s-910-3412-2500-4330l-7020-4052c-1590-918-3410-918-5000 0l-7019 4052c-1590 918-2500 2494-2500 4330s910 3412 2500 4330l7019 4053c1590 918 3410 918 5000 0z" fill="#b5d8e6"/><path d="M43260 33531l14526-8386c1590-918 2500-2494 2500-4330s-910-3413-2500-4330L43260 8098c-1590-918-3410-918-5000 0l-14526 8387c-1590 917-2500 2494-2500 4330s910 3412 2500 4330l14526 8386c1590 918 3410 918 5000 0z" fill="#00b7ff"/><path d="M7206 8403l2500-1444c795-459 1250-1247 1250-2165s-455-1706-1250-2165L7206 1186c-795-459-1705-459-2500 0L2206 2629C1411 3088 956 3876 956 4794s455 1706 1250 2165l2500 1444c795 459 1705 459 2500 0z" fill-opacity=".071"/></g><path d="M0 16000h47000V0H0v16000z" fill="none"/></svg>