<svg xmlns="http://www.w3.org/2000/svg" width="470" height="160" version="1.0" viewBox="0 0 47000 16000" shape-rendering="geometricPrecision" text-rendering="geometricPrecision" image-rendering="optimizeQuality" fill-rule="evenodd" clip-rule="evenodd"><defs><clipPath id="a"><path d="M0 16000h47000V0H0v16000z"/></clipPath></defs><g clip-path="url(#a)"><path d="M431 29592l2819-1628c1590-918 3410-918 5000 0l12381 7148c1590 918 3410 918 5000 0l14526-8386c1590-918 2500-2494 2500-4330s-910-3412-2500-4330L25631 9679c-1590-918-3410-918-5000 0l-2820 1628c-1590 918-3410 918-5000 0L431 4159c-1590-918-3410-918-5000 0l-14526 8387c-1590 918-2500 2494-2500 4330s910 3412 2500 4330l14526 8386c1590 918 3410 918 5000 0z" fill="#00b7ff"/><path d="M34405 24442l7019-4052c1590-918 2500-2494 2500-4330s-910-3412-2500-4330l-7019-4053c-1590-918-3410-918-5000 0l-7019 4053c-1590 918-2500 2494-2500 4330s910 3412 2500 4330l7019 4052c1590 918 3410 918 5000 0zM12236 5614c1381 0 2500-1119 2500-2500 0-1380-1119-2500-2500-2500S9736 1734 9736 3114c0 1381 1119 2500 2500 2500z" fill-opacity=".071"/></g><path d="M0 16000h47000V0H0v16000z" fill="none"/></svg>