<svg xmlns="http://www.w3.org/2000/svg" width="7" height="22" version="1.0" viewBox="0 0 700 2200" shape-rendering="geometricPrecision" text-rendering="geometricPrecision" image-rendering="optimizeQuality" fill-rule="evenodd" clip-rule="evenodd"><path d="M127 639h463c21 0 38 17 38 38s-18 38-38 38h-17v85l-1 1127c0 122-100 223-223 223-122 0-222-100-222-223V715h-17c-21 0-38-17-38-38s17-38 38-38h17zm77 130v112l-1 1046c0 80 66 146 146 146 28 0 54-7 76-21h-5c-77 0-140-63-140-140V751c0-20-16-36-35-36h-5c-20 0-36 17-36 36v18z" fill="#929da6"/><path d="M573 1118l-1 809c0 122-100 223-223 223-122 0-222-100-222-223v-804c2 65 31 123 77 163l-1 641c0 80 66 146 146 146 28 0 54-7 76-21h-5c-77 0-140-63-140-140v-583c22 8 45 12 70 12 123 0 223-100 223-223zM350 50c123 0 223 100 223 223S473 496 350 496 127 396 127 273 227 50 350 50z" fill="#119ed6"/></svg>