<svg xmlns="http://www.w3.org/2000/svg" width="181" height="41" version="1.0" viewBox="0 0 18100 4100" shape-rendering="geometricPrecision" text-rendering="geometricPrecision" image-rendering="optimizeQuality" fill-rule="evenodd" clip-rule="evenodd"><path d="M13891 2593v488c0 259 55 952 983 952s983-693 983-952v-99c0-52-31-85-77-85h-521c-46 0-79 37-77 83-7 238-54 379-308 379-290 0-309-184-309-485v-565c0-301 19-485 309-485 144 0 221 45 262 128 31 60 42 127 44 193-2 45 31 82 77 82h518c45 0 76-33 77-84 0-202-23-389-98-546-163-341-529-447-880-447-609 0-983 307-983 952v491zM4124 1218c78 0 117 39 117 117v439c0 74-39 117-117 117h-948c-75 0-118 40-118 118v125c0 75 43 118 118 118h607c78 0 117 39 117 117v439c0 74-39 117-117 117h-607c-75 0-118 40-118 118v125c0 75 43 118 118 118h948c78 0 117 39 117 117v439c0 78-39 118-117 118H2479c-75 0-118-44-118-118V1335c0-78 43-117 118-117h1645zm1112 0c67 0 110 27 137 90l533 1304c16 35 47 28 47-12V1335c0-78 43-117 117-117h439c78 0 118 39 118 117v2507c0 74-40 118-118 118h-576c-66 0-109-28-137-91l-533-1304c-15-35-47-27-47 12v1265c0 74-39 118-117 118h-439c-74 0-117-44-117-118V1335c0-78 43-117 117-117h576zm3709 881c0-259-54-952-983-952-928 0-983 693-983 952v979c0 259 55 952 983 952 929 0 983-693 983-952v-979zm-673 772c0 301-20 485-310 485s-309-184-309-485v-564c0-302 19-486 309-486s310 184 310 486v564zm1954-1653c71 0 110 39 126 105l278 1140c8 39 39 39 47 0l278-1140c15-66 55-105 125-105h811c78 0 117 39 117 117v2507c0 74-39 118-117 118h-439c-74 0-117-44-117-118V2299c0-28-36-32-43-4l-380 1563c-16 66-59 102-130 102h-258c-71 0-114-36-129-102l-380-1563c-8-28-43-24-43 4v1543c0 74-40 118-118 118h-439c-78 0-117-44-117-118V1335c0-78 39-117 117-117h811zm7824 881c0-259-55-952-983-952s-983 693-983 952v979c0 259 55 952 983 952s983-693 983-952v-979zm-674 772c0 301-19 485-309 485s-310-184-310-485v-564c0-302 20-486 310-486s309 184 309 486v564zM50 2509v569c0 247 50 888 859 948 13 1 26 1 40 2s27 1 41 2h86c14-1 28-1 42-2s27-1 40-2c809-60 859-701 859-948v-529c0-78-39-117-118-117h-783c-75 0-118 39-118 117v314c0 74 43 117 118 117h225c-7 225-51 363-273 375l-8 1h-53l-12-1h-1l-12-1c-241-21-258-201-258-483v-562c0-301 19-485 309-485 144 0 221 45 263 128 30 60 41 127 43 193-2 45 31 82 77 82h518c45 0 76-33 77-84 0-202-23-389-98-546-163-341-529-447-880-447-609 0-983 307-983 952v407z" fill="#505a5f"/><path d="M12576 1178h873c40 0 72 33 72 72 0 40-33 73-72 73h-32v160l-1 2127c0 231-189 421-420 421-232 0-421-190-421-421l1-2127v-160h-32c-39 0-72-33-72-73 0-39 33-72 72-72h32zm145 246v212l-1 1974c0 152 124 276 276 276 52 0 101-15 143-40h-10c-146 0-265-119-265-265l1-1945v-246c0-37-31-67-67-67h-10c-37 0-67 30-67 67v34z" fill="#929da6"/><path d="M13417 2082l-1 1528c0 231-189 421-420 421-232 0-421-190-421-421l1-1518c3 123 58 233 144 308v1210c0 152 124 276 276 276 52 0 101-15 143-40h-10c-146 0-265-119-265-265l1-1099c41 13 85 21 131 21 233 0 421-188 421-421zM12997 67c232 0 420 188 420 421 0 232-188 420-420 420-233 0-421-188-421-420 0-233 188-421 421-421z" fill="#119ed6"/></svg>