<svg xmlns="http://www.w3.org/2000/svg" width="51" height="51" version="1.0" viewBox="0 0 5100 5100" shape-rendering="geometricPrecision" text-rendering="geometricPrecision" image-rendering="optimizeQuality" fill-rule="evenodd" clip-rule="evenodd"><path d="M2550 5050c1381 0 2500-1119 2500-2500S3931 50 2550 50 50 1169 50 2550s1119 2500 2500 2500z" fill="#00b7ff"/><path d="M2858 3872V2214c0-98-138-178-308-178s-308 80-308 178v1658c0 98 138 178 308 178s308-80 308-178zm-308-2206c170 0 308-138 308-308s-138-308-308-308-308 138-308 308 138 308 308 308z" fill="#fff"/></svg>